<svg width="1000" height="1000" viewBox="0 0 1000 1000" fill="none" xmlns="http://www.w3.org/2000/svg">
<path d="M752.716 241.953C752.716 209.08 721.799 185.06 690.106 193.31L572.536 223.913V223.943L524.102 236.489L524.115 236.505C548.87 231.161 572.52 250.104 572.52 275.82L572.536 569.068C572.536 668.981 491.867 749.971 392.356 749.971C300.016 749.971 223.9 680.221 213.409 590.338C212.74 584.638 212.334 578.856 212.205 573.006C214.354 721.012 334.522 840.324 482.446 840.324C631.712 840.324 752.716 718.839 752.716 568.969V241.953Z" fill="#6F9FFF"/>
<path d="M212.184 571.057C212.185 571.135 212.187 571.214 212.189 571.292C212.182 570.702 212.178 570.111 212.176 569.519C212.177 570.032 212.18 570.545 212.184 571.057Z" fill="#6F9FFF"/>
<path d="M392.356 270.729V270.741L352.267 281.126L352.311 281.177L354.79 280.532C373.805 275.582 392.356 289.994 392.356 309.718L392.341 570.609C392.341 571.17 392.351 570.051 392.341 570.609C391.449 619.789 351.462 659.381 302.266 659.381C252.551 659.381 212.242 618.951 212.176 569.053C212.267 668.885 292.901 749.787 392.356 749.787C491.867 749.787 572.536 668.794 572.536 568.884V275.78C572.536 249.482 547.802 230.266 522.447 236.866L392.356 270.729Z" fill="#3377FF"/>
<path fill-rule="evenodd" clip-rule="evenodd" d="M212.176 568.932V348.785C212.176 330.468 224.508 314.468 242.167 309.871L354.79 280.555C373.805 275.605 392.356 290.017 392.356 309.741V568.932C392.356 618.887 352.021 659.384 302.266 659.384C252.51 659.384 212.176 618.887 212.176 568.932Z" fill="#122FC8"/>
</svg>
