<svg width="2573" height="1000" viewBox="0 0 2573 1000" fill="none" xmlns="http://www.w3.org/2000/svg">
<path d="M693.947 289.297C693.947 263.958 670.115 245.442 645.685 251.802L555.058 275.392V275.415L517.723 285.086L517.734 285.098C536.815 280.978 555.046 295.581 555.046 315.403L555.058 541.448C555.058 618.464 492.875 680.894 416.169 680.894C344.99 680.894 286.318 627.128 278.231 557.844C277.715 553.45 277.402 548.993 277.303 544.484C278.959 658.572 371.589 750.542 485.614 750.542C600.673 750.542 693.947 656.897 693.947 541.372V289.297Z" fill="#6F9FFF"/>
<path d="M277.286 542.981C277.288 543.042 277.289 543.103 277.291 543.163C277.285 542.708 277.282 542.252 277.281 541.796C277.281 542.191 277.283 542.587 277.286 542.981Z" fill="#6F9FFF"/>
<path d="M416.169 311.478V311.488L385.267 319.493L385.301 319.533L387.212 319.035C401.87 315.22 416.169 326.329 416.169 341.532L416.157 542.636C416.157 543.069 416.165 542.206 416.157 542.636C415.47 580.546 384.647 611.065 346.725 611.065C308.403 611.065 277.331 579.9 277.28 541.437C277.35 618.391 339.506 680.753 416.169 680.753C492.875 680.753 555.058 618.32 555.058 541.306V315.372C555.058 295.101 535.992 280.288 516.448 285.376L416.169 311.478Z" fill="#3377FF"/>
<path fill-rule="evenodd" clip-rule="evenodd" d="M277.28 541.342V371.646C277.28 357.527 286.786 345.193 300.399 341.649L387.212 319.052C401.87 315.236 416.169 326.346 416.169 341.549V541.342C416.169 579.849 385.078 611.065 346.725 611.065C308.372 611.065 277.28 579.849 277.28 541.342Z" fill="#122FC8"/>
<path d="M977.458 421.594V501.99C977.458 509.591 977.152 516.607 975.623 522.747C973.788 532.687 968.895 541.457 961.555 547.012C954.827 552.566 945.958 555.49 936.477 556.075C924.855 556.075 914.457 553.443 906.811 547.304C893.049 537.072 890.602 519.823 890.602 499.651V421.594H860.631V499.651C860.325 528.009 863.995 551.982 886.015 568.938C898.86 579.17 916.598 584.14 933.419 583.263C948.71 582.678 965.531 577.708 977.764 566.891C978.987 565.722 980.21 564.845 981.128 563.676V579.463H1007.43V421.594H977.458Z" fill="white"/>
<path d="M1175.18 432.118C1162.34 421.886 1144.6 416.916 1127.78 417.793C1112.49 418.378 1095.97 423.348 1083.43 434.165L1080.38 437.088V421.594H1053.77V579.463H1083.74V499.066C1083.74 491.465 1084.05 484.449 1085.57 478.31C1087.72 468.37 1092.3 459.599 1099.64 453.752C1106.37 448.49 1115.24 445.566 1124.72 444.982C1136.65 444.689 1146.74 447.613 1154.39 453.46C1168.15 463.984 1170.6 481.233 1170.6 501.405V579.463H1200.57V501.405C1200.87 473.047 1197.2 449.075 1175.18 432.118Z" fill="white"/>
<path d="M1420.92 421.594L1385.14 533.564L1349.36 421.594H1323.67L1287.58 533.564L1251.8 421.594L1222.44 421.301L1272.9 579.463H1300.73L1336.21 467.493L1370.46 579.463H1399.82L1450.28 421.594H1420.92Z" fill="white"/>
<path d="M1496.6 508.422H1624.74C1624.74 505.79 1625.05 503.159 1625.05 500.528C1625.05 480.064 1619.55 459.307 1606.09 442.935C1591.1 425.687 1569.08 417.208 1544.92 417.208C1521.07 417.208 1498.74 425.979 1484.06 442.935C1470.3 459.307 1465.41 479.479 1464.8 500.528C1464.49 520.7 1470 541.165 1484.06 557.829C1498.44 575.077 1521.07 583.263 1544.92 583.848C1568.78 584.432 1591.72 575.662 1607.01 558.413C1610.37 554.32 1613.43 549.935 1616.18 545.258L1586.82 533.271C1585.29 535.61 1584.07 537.949 1582.23 540.58C1573.67 551.397 1559.91 556.952 1544.92 556.952C1530.24 556.952 1516.18 551.397 1507.61 540.58C1500.58 531.81 1497.52 520.408 1496.6 508.422ZM1544.92 444.105C1559.91 443.812 1573.67 449.367 1582.23 460.476C1587.74 467.493 1590.8 476.263 1592.33 485.326H1497.52C1499.05 476.263 1502.11 467.493 1507.61 460.476C1516.18 449.367 1530.24 443.812 1544.92 444.105Z" fill="white"/>
<path d="M1683.45 463.4C1684.37 461.646 1685.9 459.892 1687.12 458.43C1695.38 448.49 1707.92 444.105 1721.99 444.105C1733.3 443.812 1744.62 446.443 1753.18 452.583C1760.52 457.553 1765.11 465.446 1766.33 473.924L1734.52 478.31C1709.45 481.818 1692.63 482.987 1674.89 492.635C1659.29 501.405 1649.81 516.315 1649.81 533.271C1649.81 544.965 1653.48 553.443 1660.51 563.383C1669.38 574.785 1686.2 582.971 1703.02 583.555C1717.09 584.14 1731.16 580.924 1744.01 574.2C1754.4 569.23 1765.41 559.875 1770.61 549.35V579.463H1796.91V480.356C1796.91 471.293 1794.77 461.061 1789.88 451.413C1777.65 427.733 1752.87 417.501 1722.6 417.501C1696.91 417.501 1675.19 425.979 1660.51 444.689L1656.23 450.829L1683.45 463.4ZM1767.55 497.605C1767.55 507.545 1767.55 516.607 1762.05 527.424C1753.79 547.596 1728.1 558.413 1707.31 557.536C1691.1 556.659 1679.17 544.673 1679.48 531.517C1679.78 511.345 1705.78 507.252 1730.24 503.452C1747.37 500.528 1758.07 499.066 1767.55 497.605Z" fill="white"/>
<path d="M1943.34 421.594L1898.38 543.796L1853.12 421.594H1823.14L1883.39 579.463H1913.36L1973.31 421.594H1943.34Z" fill="white"/>
<path d="M2023.83 508.422H2151.97C2151.97 505.79 2152.28 503.159 2152.28 500.528C2152.28 480.064 2146.78 459.307 2133.32 442.935C2118.33 425.687 2096.31 417.208 2072.15 417.208C2048.3 417.208 2025.97 425.979 2011.29 442.935C1997.53 459.307 1992.64 479.479 1992.03 500.528C1991.72 520.7 1997.23 541.165 2011.29 557.829C2025.67 575.077 2048.3 583.263 2072.15 583.848C2096.01 584.432 2118.95 575.662 2134.24 558.413C2137.6 554.32 2140.66 549.935 2143.41 545.258L2114.05 533.271C2112.52 535.61 2111.3 537.949 2109.46 540.58C2100.9 551.397 2087.14 556.952 2072.15 556.952C2057.47 556.952 2043.41 551.397 2034.84 540.58C2027.81 531.81 2024.75 520.408 2023.83 508.422ZM2072.15 444.105C2087.14 443.812 2100.9 449.367 2109.46 460.476C2114.97 467.493 2118.03 476.263 2119.56 485.326H2024.75C2026.28 476.263 2029.34 467.493 2034.84 460.476C2043.41 449.367 2057.47 443.812 2072.15 444.105Z" fill="white"/>
</svg>
